<?xml version="1.0" standalone="no"?>
<!DOCTYPE svg PUBLIC "-//W3C//DTD SVG 20010904//EN"
 "http://www.w3.org/TR/2001/REC-SVG-20010904/DTD/svg10.dtd">
<svg version="1.0" xmlns="http://www.w3.org/2000/svg"
 width="512.000000pt" height="512.000000pt" viewBox="0 0 512.000000 512.000000"
 preserveAspectRatio="xMidYMid meet">
<metadata>
Created by potrace 1.14, written by Peter Selinger 2001-2017
</metadata>
<g transform="translate(0.000000,512.000000) scale(0.100000,-0.100000)"
fill="#000000" stroke="none">
<path d="M5 4613 l0 -508 150 -3 150 -2 0 357 0 358 360 5 360 5 1 148 1 147
-511 0 -511 0 0 -507z"/>
<path d="M4095 4973 l0 -148 360 -5 360 -5 0 -358 0 -357 150 2 150 3 0 508 0
507 -510 0 -510 0 0 -147z"/>
<path d="M715 4390 c-1 -3 -2 -366 -2 -807 l0 -803 657 0 657 0 -1 -547 -1
-548 -240 -5 -240 -5 0 -337 0 -338 -337 0 -337 0 -3 -47 c-2 -27 -2 -94 0
-151 l3 -102 729 0 729 0 -1 150 -1 150 -241 0 -241 0 0 188 1 187 139 2 c77
1 186 2 242 3 l101 0 -1 308 c0 170 2 313 5 318 6 9 437 9 446 -1 3 -2 5 -297
5 -655 l-1 -650 809 0 809 0 0 1525 0 1525 -415 0 c-269 0 -415 -4 -416 -10 0
-5 -1 -72 -2 -147 l-1 -138 267 -3 266 -2 0 -203 0 -203 -172 1 c-95 0 -180
-1 -189 -4 -16 -3 -18 -19 -18 -152 l0 -149 190 0 189 0 0 -210 c-1 -188 -2
-210 -17 -211 -77 -4 -826 -3 -833 1 -5 3 -10 107 -11 230 l-3 225 -145 0
-145 0 -5 -229 -5 -229 -302 -2 c-167 -1 -303 1 -304 4 -1 8 -1 1170 0 1198 1
22 4 23 154 25 l152 3 0 145 0 145 -152 3 c-112 2 -153 6 -154 15 0 6 -1 130
-1 275 0 144 -3 263 -6 263 -22 4 -1604 3 -1607 -1z m1306 -299 c3 0 6 -228 6
-505 l-1 -505 -506 1 -507 0 2 506 c1 279 3 507 3 507 36 1 999 -3 1003 -4z
m2077 -2586 l0 -505 -504 0 -504 0 0 505 0 505 504 0 505 0 -1 -505z"/>
<path d="M1379 3762 c-12 -2 -15 -28 -14 -150 l0 -147 153 -1 c107 -1 152 2
153 10 7 62 2 279 -6 284 -10 6 -256 10 -286 4z"/>
<path d="M3412 1516 c0 -77 3 -145 8 -151 6 -7 257 -12 300 -6 4 1 5 267 1
292 -1 4 -70 6 -155 6 l-154 -1 0 -140z"/>
<path d="M2879 4390 c-6 -40 -2 -284 6 -289 6 -4 75 -7 155 -7 l145 1 0 150 0
150 -152 0 c-84 0 -153 -2 -154 -5z"/>
<path d="M3580 4390 c-5 -3 -9 -71 -7 -150 l2 -145 413 0 412 0 -2 150 -3 150
-403 0 c-222 0 -407 -2 -412 -5z"/>
<path d="M2936 3228 c1 -79 2 -146 3 -150 0 -5 70 -8 154 -8 l153 0 0 150 0
150 -156 0 -156 0 2 -142z"/>
<path d="M803 2307 c-4 -7 -6 -168 -4 -263 l1 -30 435 0 435 0 0 148 c0 81 -3
149 -7 149 -37 6 -856 2 -860 -4z"/>
<path d="M863 1530 l0 -150 155 2 156 3 0 145 -1 145 -154 3 -155 2 -1 -150z"/>
<path d="M5 513 l0 -508 511 -3 510 -2 0 150 0 150 -361 0 -360 0 0 360 0 360
-150 0 -150 0 0 -507z"/>
<path d="M4817 1013 c-2 -5 -3 -165 -3 -358 l1 -350 -360 -5 -360 -5 0 -145 0
-145 510 0 510 0 0 508 0 507 -147 0 c-81 0 -149 -3 -151 -7z"/>
</g>
</svg>
